<svg xmlns="http://www.w3.org/2000/svg" viewBox="0 0 48 48" width="512" height="512">
<g stroke="#1f2937" stroke-width="0.9" stroke-linecap="round" fill="none">
  <line x1="32.000" y1="24.000" x2="47.000" y2="24.000"/>
  <line x1="31.846" y1="25.561" x2="46.558" y2="28.487"/>
  <line x1="31.391" y1="27.061" x2="45.249" y2="32.802"/>
  <line x1="30.652" y1="28.445" x2="43.124" y2="36.778"/>
  <line x1="29.657" y1="29.657" x2="40.263" y2="40.263"/>
  <line x1="28.445" y1="30.652" x2="36.778" y2="43.124"/>
  <line x1="27.061" y1="31.391" x2="32.802" y2="45.249"/>
  <line x1="25.561" y1="31.846" x2="28.487" y2="46.558"/>
  <line x1="24.000" y1="32.000" x2="24.000" y2="47.000"/>
  <line x1="22.439" y1="31.846" x2="19.513" y2="46.558"/>
  <line x1="20.939" y1="31.391" x2="15.198" y2="45.249"/>
  <line x1="19.555" y1="30.652" x2="11.222" y2="43.124"/>
  <line x1="18.343" y1="29.657" x2="7.737" y2="40.263"/>
  <line x1="17.348" y1="28.445" x2="4.876" y2="36.778"/>
  <line x1="16.609" y1="27.061" x2="2.751" y2="32.802"/>
  <line x1="16.154" y1="25.561" x2="1.442" y2="28.487"/>
  <line x1="16.000" y1="24.000" x2="1.000" y2="24.000"/>
  <line x1="16.154" y1="22.439" x2="1.442" y2="19.513"/>
  <line x1="16.609" y1="20.939" x2="2.751" y2="15.198"/>
  <line x1="17.348" y1="19.555" x2="4.876" y2="11.222"/>
  <line x1="18.343" y1="18.343" x2="7.737" y2="7.737"/>
  <line x1="19.555" y1="17.348" x2="11.222" y2="4.876"/>
  <line x1="20.939" y1="16.609" x2="15.198" y2="2.751"/>
  <line x1="22.439" y1="16.154" x2="19.513" y2="1.442"/>
  <line x1="24.000" y1="16.000" x2="24.000" y2="1.000"/>
  <line x1="25.561" y1="16.154" x2="28.487" y2="1.442"/>
  <line x1="27.061" y1="16.609" x2="32.802" y2="2.751"/>
  <line x1="28.445" y1="17.348" x2="36.778" y2="4.876"/>
  <line x1="29.657" y1="18.343" x2="40.263" y2="7.737"/>
  <line x1="30.652" y1="19.555" x2="43.124" y2="11.222"/>
  <line x1="31.391" y1="20.939" x2="45.249" y2="15.198"/>
  <line x1="31.846" y1="22.439" x2="46.558" y2="19.513"/>
  <line x1="31.464" y1="24.735" x2="41.416" y2="25.715"/>
  <line x1="31.177" y1="26.177" x2="40.746" y2="29.080"/>
  <line x1="30.614" y1="27.535" x2="39.434" y2="32.249"/>
  <line x1="29.798" y1="28.758" x2="37.528" y2="35.102"/>
  <line x1="28.758" y1="29.798" x2="35.102" y2="37.528"/>
  <line x1="27.535" y1="30.614" x2="32.249" y2="39.434"/>
  <line x1="26.177" y1="31.177" x2="29.080" y2="40.746"/>
  <line x1="24.735" y1="31.464" x2="25.715" y2="41.416"/>
  <line x1="23.265" y1="31.464" x2="22.285" y2="41.416"/>
  <line x1="21.823" y1="31.177" x2="18.920" y2="40.746"/>
  <line x1="20.465" y1="30.614" x2="15.751" y2="39.434"/>
  <line x1="19.242" y1="29.798" x2="12.898" y2="37.528"/>
  <line x1="18.202" y1="28.758" x2="10.472" y2="35.102"/>
  <line x1="17.386" y1="27.535" x2="8.566" y2="32.249"/>
  <line x1="16.823" y1="26.177" x2="7.254" y2="29.080"/>
  <line x1="16.536" y1="24.735" x2="6.584" y2="25.715"/>
  <line x1="16.536" y1="23.265" x2="6.584" y2="22.285"/>
  <line x1="16.823" y1="21.823" x2="7.254" y2="18.920"/>
  <line x1="17.386" y1="20.465" x2="8.566" y2="15.751"/>
  <line x1="18.202" y1="19.242" x2="10.472" y2="12.898"/>
  <line x1="19.242" y1="18.202" x2="12.898" y2="10.472"/>
  <line x1="20.465" y1="17.386" x2="15.751" y2="8.566"/>
  <line x1="21.823" y1="16.823" x2="18.920" y2="7.254"/>
  <line x1="23.265" y1="16.536" x2="22.285" y2="6.584"/>
  <line x1="24.735" y1="16.536" x2="25.715" y2="6.584"/>
  <line x1="26.177" y1="16.823" x2="29.080" y2="7.254"/>
  <line x1="27.535" y1="17.386" x2="32.249" y2="8.566"/>
  <line x1="28.758" y1="18.202" x2="35.102" y2="10.472"/>
  <line x1="29.798" y1="19.242" x2="37.528" y2="12.898"/>
  <line x1="30.614" y1="20.465" x2="39.434" y2="15.751"/>
  <line x1="31.177" y1="21.823" x2="40.746" y2="18.920"/>
  <line x1="31.464" y1="23.265" x2="41.416" y2="22.285"/>
</g>
<circle cx="24" cy="24" r="4.5" fill="#1f2937"/>
</svg>
